<mxfile host="app.diagrams.net" agent="Mozilla/5.0 (Windows NT 10.0; Win64; x64) AppleWebKit/537.36 (KHTML, like Gecko) Chrome/129.0.0.0 Safari/537.36" version="24.7.17">
  <diagram name="PÃ¡gina-1" id="dli9Ct7WA-Y6g10OxSPM">
    <mxGraphModel dx="1434" dy="772" grid="1" gridSize="10" guides="1" tooltips="1" connect="1" arrows="1" fold="1" page="1" pageScale="1" pageWidth="827" pageHeight="1169" math="0" shadow="0">
      <root>
        <mxCell id="0" />
        <mxCell id="1" parent="0" />
        <mxCell id="4VcA2u2GX-OfZA5xC6Pf-2" value="" style="rounded=0;whiteSpace=wrap;html=1;rotation=90;" parent="1" vertex="1">
          <mxGeometry x="144.38" y="128.13" width="453.75" height="217.5" as="geometry" />
        </mxCell>
        <mxCell id="4VcA2u2GX-OfZA5xC6Pf-4" value="Layout small" style="text;html=1;align=center;verticalAlign=middle;whiteSpace=wrap;rounded=0;" parent="1" vertex="1">
          <mxGeometry x="200" y="10" width="60" height="30" as="geometry" />
        </mxCell>
        <mxCell id="4VcA2u2GX-OfZA5xC6Pf-5" value="Layout&amp;nbsp; large" style="text;html=1;align=center;verticalAlign=middle;whiteSpace=wrap;rounded=0;" parent="1" vertex="1">
          <mxGeometry x="30" y="440" width="190" height="30" as="geometry" />
        </mxCell>
        <mxCell id="4VcA2u2GX-OfZA5xC6Pf-6" style="edgeStyle=orthogonalEdgeStyle;rounded=0;orthogonalLoop=1;jettySize=auto;html=1;exitX=0.75;exitY=0;exitDx=0;exitDy=0;entryX=0.716;entryY=0.133;entryDx=0;entryDy=0;entryPerimeter=0;" parent="1" source="4VcA2u2GX-OfZA5xC6Pf-5" target="4VcA2u2GX-OfZA5xC6Pf-5" edge="1">
          <mxGeometry relative="1" as="geometry" />
        </mxCell>
        <mxCell id="4VcA2u2GX-OfZA5xC6Pf-8" value="" style="rounded=0;whiteSpace=wrap;html=1;" parent="1" vertex="1">
          <mxGeometry x="90" y="470" width="710" height="390" as="geometry" />
        </mxCell>
        <mxCell id="4VcA2u2GX-OfZA5xC6Pf-9" value="" style="rounded=0;whiteSpace=wrap;html=1;" parent="1" vertex="1">
          <mxGeometry x="270" y="30" width="200" height="30" as="geometry" />
        </mxCell>
        <mxCell id="4VcA2u2GX-OfZA5xC6Pf-10" value="HEADER" style="text;html=1;align=center;verticalAlign=middle;whiteSpace=wrap;rounded=0;" parent="1" vertex="1">
          <mxGeometry x="341.25" y="30" width="60" height="30" as="geometry" />
        </mxCell>
        <mxCell id="4VcA2u2GX-OfZA5xC6Pf-11" value="small&amp;nbsp;&lt;div&gt;image&lt;/div&gt;" style="rounded=0;whiteSpace=wrap;html=1;" parent="1" vertex="1">
          <mxGeometry x="288" y="77" width="162" height="103.75" as="geometry" />
        </mxCell>
        <mxCell id="4VcA2u2GX-OfZA5xC6Pf-12" value="Data&lt;div&gt;label: value:&lt;/div&gt;&lt;div&gt;label: value:&lt;br&gt;&lt;/div&gt;&lt;div&gt;label: value:&lt;br&gt;&lt;/div&gt;" style="rounded=0;whiteSpace=wrap;html=1;" parent="1" vertex="1">
          <mxGeometry x="290" y="192" width="160" height="103.75" as="geometry" />
        </mxCell>
        <mxCell id="4VcA2u2GX-OfZA5xC6Pf-13" value="FOOTER" style="rounded=0;whiteSpace=wrap;html=1;" parent="1" vertex="1">
          <mxGeometry x="270" y="420" width="196.25" height="30" as="geometry" />
        </mxCell>
        <mxCell id="4VcA2u2GX-OfZA5xC6Pf-14" value="Weather&lt;div&gt;&lt;br&gt;&lt;div&gt;label: value:&lt;/div&gt;&lt;div&gt;label: value:&lt;br&gt;&lt;/div&gt;&lt;div&gt;label: value:&lt;/div&gt;&lt;/div&gt;" style="rounded=0;whiteSpace=wrap;html=1;" parent="1" vertex="1">
          <mxGeometry x="286.26" y="307" width="163.74" height="103.75" as="geometry" />
        </mxCell>
        <mxCell id="4VcA2u2GX-OfZA5xC6Pf-21" value="HEADER" style="rounded=0;whiteSpace=wrap;html=1;" parent="1" vertex="1">
          <mxGeometry x="150" y="480" width="590" height="30" as="geometry" />
        </mxCell>
        <mxCell id="4VcA2u2GX-OfZA5xC6Pf-22" value="small&amp;nbsp;&lt;div&gt;image&lt;/div&gt;" style="rounded=0;whiteSpace=wrap;html=1;" parent="1" vertex="1">
          <mxGeometry x="180" y="533" width="320" height="177" as="geometry" />
        </mxCell>
        <mxCell id="4VcA2u2GX-OfZA5xC6Pf-23" value="Data&lt;div&gt;label: value:&lt;/div&gt;&lt;div&gt;label: value:&lt;br&gt;&lt;/div&gt;&lt;div&gt;label: value:&lt;br&gt;&lt;/div&gt;" style="rounded=0;whiteSpace=wrap;html=1;" parent="1" vertex="1">
          <mxGeometry x="510" y="533" width="180" height="177" as="geometry" />
        </mxCell>
        <mxCell id="4VcA2u2GX-OfZA5xC6Pf-24" value="FOOTER" style="rounded=0;whiteSpace=wrap;html=1;" parent="1" vertex="1">
          <mxGeometry x="150" y="830" width="600" height="30" as="geometry" />
        </mxCell>
        <mxCell id="4VcA2u2GX-OfZA5xC6Pf-25" value="Weather&lt;div&gt;&lt;br&gt;&lt;div&gt;label: value:&lt;/div&gt;&lt;div&gt;label: value:&lt;br&gt;&lt;/div&gt;&lt;div&gt;label: value:&lt;/div&gt;&lt;/div&gt;" style="rounded=0;whiteSpace=wrap;html=1;" parent="1" vertex="1">
          <mxGeometry x="180" y="730" width="510" height="80" as="geometry" />
        </mxCell>
      </root>
    </mxGraphModel>
  </diagram>
</mxfile>
